<svg width="576" height="384" viewBox="0 0 576 384" fill="none" xmlns="http://www.w3.org/2000/svg">
    <path
        d="M64 0C28.7 0 0 28.7 0 64V320C0 355.3 28.7 384 64 384H512C547.3 384 576 355.3 576 320V64C576 28.7 547.3 0 512 0H64ZM80 64H112C120.8 64 128 71.2 128 80V112C128 120.8 120.8 128 112 128H80C71.2 128 64 120.8 64 112V80C64 71.2 71.2 64 80 64ZM64 176C64 167.2 71.2 160 80 160H112C120.8 160 128 167.2 128 176V208C128 216.8 120.8 224 112 224H80C71.2 224 64 216.8 64 208V176ZM80 256H112C120.8 256 128 263.2 128 272V304C128 312.8 120.8 320 112 320H80C71.2 320 64 312.8 64 304V272C64 263.2 71.2 256 80 256ZM160 80C160 71.2 167.2 64 176 64H208C216.8 64 224 71.2 224 80V112C224 120.8 216.8 128 208 128H176C167.2 128 160 120.8 160 112V80ZM176 160H208C216.8 160 224 167.2 224 176V208C224 216.8 216.8 224 208 224H176C167.2 224 160 216.8 160 208V176C160 167.2 167.2 160 176 160ZM160 272C160 263.2 167.2 256 176 256H400C408.8 256 416 263.2 416 272V304C416 312.8 408.8 320 400 320H176C167.2 320 160 312.8 160 304V272ZM272 64H304C312.8 64 320 71.2 320 80V112C320 120.8 312.8 128 304 128H272C263.2 128 256 120.8 256 112V80C256 71.2 263.2 64 272 64ZM256 176C256 167.2 263.2 160 272 160H304C312.8 160 320 167.2 320 176V208C320 216.8 312.8 224 304 224H272C263.2 224 256 216.8 256 208V176ZM368 64H400C408.8 64 416 71.2 416 80V112C416 120.8 408.8 128 400 128H368C359.2 128 352 120.8 352 112V80C352 71.2 359.2 64 368 64ZM352 176C352 167.2 359.2 160 368 160H400C408.8 160 416 167.2 416 176V208C416 216.8 408.8 224 400 224H368C359.2 224 352 216.8 352 208V176ZM464 64H496C504.8 64 512 71.2 512 80V112C512 120.8 504.8 128 496 128H464C455.2 128 448 120.8 448 112V80C448 71.2 455.2 64 464 64ZM448 176C448 167.2 455.2 160 464 160H496C504.8 160 512 167.2 512 176V208C512 216.8 504.8 224 496 224H464C455.2 224 448 216.8 448 208V176ZM464 256H496C504.8 256 512 263.2 512 272V304C512 312.8 504.8 320 496 320H464C455.2 320 448 312.8 448 304V272C448 263.2 455.2 256 464 256Z"
        fill="url(#paint0_linear_7_3)" />
    <defs>
        <linearGradient id="paint0_linear_7_3" x1="0" y1="0" x2="576" y2="384" gradientUnits="userSpaceOnUse">
            <stop stop-color="#9A62B9" />
            <stop offset="1" stop-color="#628ADD" />
        </linearGradient>
    </defs>
</svg>